<svg width="38" height="28" viewBox="0 0 38 28" fill="none" xmlns="http://www.w3.org/2000/svg">
<g clip-path="url(#clip0_1899_30579)">
<path d="M1.55859 23.0898H4.23047C5.25 23.0898 5.78906 22.5508 5.78906 21.5195V5.55859C5.78906 4.49219 5.25 4 4.23047 4H1.55859C0.539062 4 0 4.53906 0 5.55859V21.5195C0 22.5508 0.539062 23.0898 1.55859 23.0898ZM20.2031 22.7383C21.1289 22.7383 21.8906 22.0469 21.8906 20.7344V6.34375C21.8906 5.03125 21.1289 4.32812 20.2031 4.32812C19.7227 4.32812 19.3359 4.48047 18.8555 4.76172L6.91406 11.793C6.08203 12.2852 5.73047 12.8594 5.73047 13.5391C5.73047 14.207 6.08203 14.793 6.91406 15.2852L18.8555 22.3047C19.3359 22.5859 19.7227 22.7383 20.2031 22.7383ZM36.3047 22.7383C37.2305 22.7383 37.9922 22.0469 37.9922 20.7344V6.34375C37.9922 5.03125 37.2305 4.32812 36.3047 4.32812C35.8242 4.32812 35.4375 4.48047 34.957 4.76172L23.0156 11.793C22.1836 12.2852 21.832 12.8594 21.832 13.5391C21.832 14.207 22.1836 14.793 23.0156 15.2852L34.957 22.3047C35.4375 22.5859 35.8242 22.7383 36.3047 22.7383Z" fill="white"/>
</g>
<defs>
<clipPath id="clip0_1899_30579">
<rect width="37.9922" height="19.0898" fill="white" transform="translate(0 4)"/>
</clipPath>
</defs>
</svg>
