<svg width="28" height="28" viewBox="0 0 28 28" fill="none" xmlns="http://www.w3.org/2000/svg">
<g clip-path="url(#clip0_1899_30547)">
<path d="M8.55859 23.0898H11.2305C12.25 23.0898 12.7891 22.5508 12.7891 21.5195V5.55859C12.7891 4.49219 12.25 4 11.2305 4H8.55859C7.53906 4 7 4.53906 7 5.55859V21.5195C7 22.5508 7.53906 23.0898 8.55859 23.0898ZM17.0781 23.0898H19.7383C20.7695 23.0898 21.2969 22.5508 21.2969 21.5195V5.55859C21.2969 4.49219 20.7695 4 19.7383 4H17.0781C16.0469 4 15.5078 4.53906 15.5078 5.55859V21.5195C15.5078 22.5508 16.0469 23.0898 17.0781 23.0898Z" fill="white"/>
</g>
<defs>
<clipPath id="clip0_1899_30547">
<rect width="14.2969" height="19.0898" fill="white" transform="translate(7 4)"/>
</clipPath>
</defs>
</svg>
